<?xml version="1.0" encoding="utf-8"?>
<!-- Generator: Adobe Illustrator 25.3.1, SVG Export Plug-In . SVG Version: 6.00 Build 0)  -->
<svg version="1.1" id="Layer_1" xmlns="http://www.w3.org/2000/svg" xmlns:xlink="http://www.w3.org/1999/xlink" x="0px" y="0px"
	 viewBox="0 0 415.38 58.73" style="enable-background:new 0 0 415.38 58.73;" xml:space="preserve">
<g>
	<path d="M22.41,1.99C20.05,0.62,17.07,0,13.97,0C7.14,0,0.19,2.92,0.19,10.99c0,12.66,19.99,13.1,19.99,24.03
		c0,4.22-2.67,8.07-8.75,8.07c-5.21,0-9.25-1.86-9.99-9.56H0.37L0,41.66c2.61,1.68,6.33,3.17,11.48,3.17
		c8.01,0,12.85-4.72,12.85-11.73c0-12.6-19.99-12.48-19.99-22.85c0-5.77,4.59-8.5,8.94-8.5c4.04,0,7.76,2.86,7.57,7.57h1.06
		L22.41,1.99z"/>
	<path d="M67.54,7.45c0-4.1,0.74-5.77,5.46-5.77V0.62H58.36v1.06c5.9,0,6.89,1.74,6.89,5.77v21.42c0,10.18-5.28,13.66-12.79,13.66
		c-8.07,0-13.04-4.53-13.04-16.89V7.45c0-4.1,0.06-5.77,5.77-5.77V0.62H28.93v1.06c5.96,0,6.46,1.68,6.46,5.77v20.49
		c0,9.25,4.04,16.76,15.77,16.76c13.22,0,16.39-6.95,16.39-16.02V7.45z"/>
	<path d="M105.04,38.99c1.43,1.49,3.29,3.6,4.1,5.09h8.63v-1.06c-2.3,0-3.85-0.81-7.33-4.28L92.75,20.98l15.09-15.64
		c2.98-3.04,3.72-3.66,7.33-3.66V0.62h-13.1v1.06c5.09,0,3.97,2.42,3.17,3.29L88.77,22.47h-1.8V7.45c0-4.16,0.12-5.77,5.53-5.77
		V0.62H76.86v1.06c5.96,0,6.08,1.61,6.08,5.77v29.8c0,4.53-0.68,5.77-6.08,5.77v1.06H92.5v-1.06c-4.84,0-5.53-1.24-5.53-5.77V24.09
		h3.29L105.04,38.99z"/>
	<path d="M130.37,7.45c0-4.16,0.12-5.77,6.08-5.77V0.62h-16.2v1.06c5.96,0,6.08,1.61,6.08,5.77v36.07c0,8.44-3.35,12.48-6.08,14.46
		l0.56,0.74c4.28-3.29,9.56-7.2,9.56-16.33V7.45z"/>
	<path d="M163.15,42.65c-9.13,0-16.95-9.19-16.95-20.3c0-11.11,7.82-20.3,16.95-20.3s16.82,9.19,16.82,20.3
		C179.97,33.46,172.27,42.65,163.15,42.65z M163.15,44.7c13.22,0,21.23-10.86,21.23-22.35S176.37,0,163.15,0
		s-21.36,10.86-21.36,22.35S149.92,44.7,163.15,44.7z"/>
	<path d="M212.44,42.65c-9.13,0-16.95-9.19-16.95-20.3c0-11.11,7.82-20.3,16.95-20.3c9.13,0,16.82,9.19,16.82,20.3
		C229.26,33.46,221.56,42.65,212.44,42.65z M212.44,44.7c13.22,0,21.23-10.86,21.23-22.35S225.66,0,212.44,0
		c-13.22,0-21.36,10.86-21.36,22.35S199.22,44.7,212.44,44.7z"/>
	<path d="M280.54,36.07L249.07,0.62h-9.44v1.06c5.59,0,7.51,1.24,7.51,5.77v29.8c0,5.03-1.37,5.77-6.27,5.77v1.06h16.08v-1.06
		c-6.33,0-7.57-0.81-7.57-5.77V7.95l32.9,36.44h0.56V7.45c0-4.28,1.49-5.77,5.65-5.77V0.62h-14.28v1.06c4.66,0,6.33,1.06,6.33,5.77
		V36.07z"/>
	<path d="M325.18,0.62h-17.32v1.06c5.96,0,6.08,1.68,6.08,5.77v29.8c0,4.53-0.68,5.77-6.08,5.77v1.06h32.22l0.56-9.62h-1.06
		c-1.06,7.2-3.79,7.64-7.88,7.64h-7.76c-4.53,0-5.96-1.3-5.96-5.28V7.45c0-4.47,0.99-5.77,7.2-5.77V0.62z"/>
	<path d="M344.61,44.08h32.22l0.56-9.62h-1.06c-1.06,7.2-3.79,7.64-7.88,7.64h-7.76c-4.53,0-5.96-1.3-5.96-5.28V22.29h8.88
		c4.97,0,5.59,0.12,5.59,5.53h1.06V14.96h-1.06c0,5.28-0.62,5.4-5.59,5.4h-8.88V2.55h10.55c6.89,0,7.95,0.12,8.88,6.7h1.06
		l-0.25-8.63h-30.36v1.06c5.96,0,6.08,1.68,6.08,5.77v29.8c0,4.53-0.68,5.77-6.08,5.77V44.08z"/>
	<path d="M382.6,44.08h32.22l0.56-9.62h-1.06c-1.06,7.2-3.79,7.64-7.88,7.64h-7.76c-4.53,0-5.96-1.3-5.96-5.28V22.29h8.88
		c4.97,0,5.59,0.12,5.59,5.53h1.06V14.96h-1.06c0,5.28-0.62,5.4-5.59,5.4h-8.88V2.55h10.55c6.89,0,7.95,0.12,8.88,6.7h1.06
		l-0.25-8.63H382.6v1.06c5.96,0,6.08,1.68,6.08,5.77v29.8c0,4.53-0.68,5.77-6.08,5.77V44.08z"/>
</g>
</svg>
