<?xml version="1.0" encoding="UTF-8" standalone="no"?>
<svg
   xmlns:dc="http://purl.org/dc/elements/1.1/"
   xmlns:cc="http://creativecommons.org/ns#"
   xmlns:rdf="http://www.w3.org/1999/02/22-rdf-syntax-ns#"
   xmlns:svg="http://www.w3.org/2000/svg"
   xmlns="http://www.w3.org/2000/svg"
   viewBox="0 0 553.83734 78.303734"
   height="78.303734"
   width="553.83734"
   xml:space="preserve"
   id="svg2"
   version="1.1"><metadata
     id="metadata8"><rdf:RDF><cc:Work
         rdf:about=""><dc:format>image/svg+xml</dc:format><dc:type
           rdf:resource="http://purl.org/dc/dcmitype/StillImage" /></cc:Work></rdf:RDF></metadata><defs
     id="defs6"><clipPath
       id="clipPath18"
       clipPathUnits="userSpaceOnUse"><path
         id="path16"
         d="M 0,58.728 H 415.378 V 0 H 0 Z" /></clipPath></defs><g
     transform="matrix(1.3333333,0,0,-1.3333333,0,78.303733)"
     id="g10"><g
       id="g12"><g
         clip-path="url(#clipPath18)"
         id="g14"><g
           transform="translate(22.4109,56.7413)"
           id="g20"><path
             id="path22"
             style="fill:#231f20;fill-opacity:1;fill-rule:nonzero;stroke:none"
             d="m 0,0 c -2.359,1.366 -5.339,1.987 -8.443,1.987 -6.829,0 -13.782,-2.918 -13.782,-10.989 0,-12.664 19.99,-13.099 19.99,-24.025 0,-4.221 -2.669,-8.07 -8.753,-8.07 -5.215,0 -9.25,1.862 -9.995,9.56 h -1.055 l -0.373,-8.132 c 2.607,-1.676 6.332,-3.166 11.485,-3.166 8.008,0 12.85,4.718 12.85,11.733 0,12.602 -19.989,12.478 -19.989,22.845 0,5.774 4.594,8.505 8.939,8.505 4.035,0 7.76,-2.855 7.574,-7.573 h 1.055 z" /></g><g
           transform="translate(67.5432,51.2782)"
           id="g24"><path
             id="path26"
             style="fill:#231f20;fill-opacity:1;fill-rule:nonzero;stroke:none"
             d="M 0,0 C 0,4.097 0.745,5.773 5.463,5.773 V 6.829 H -9.188 V 5.773 c 5.898,0 6.891,-1.738 6.891,-5.773 v -21.418 c 0,-10.181 -5.277,-13.657 -12.788,-13.657 -8.071,0 -13.037,4.532 -13.037,16.886 V 0 c 0,4.097 0.062,5.773 5.773,5.773 V 6.829 H -38.614 V 5.773 c 5.96,0 6.456,-1.676 6.456,-5.773 v -20.486 c 0,-9.25 4.036,-16.762 15.769,-16.762 13.223,0 16.389,6.953 16.389,16.017 z" /></g><g
           transform="translate(105.0396,19.7415)"
           id="g28"><path
             id="path30"
             style="fill:#231f20;fill-opacity:1;fill-rule:nonzero;stroke:none"
             d="m 0,0 c 1.428,-1.49 3.29,-3.601 4.097,-5.091 h 8.629 v 1.056 c -2.297,0 -3.849,0.807 -7.325,4.283 L -12.292,18.003 2.794,33.647 c 2.979,3.042 3.724,3.663 7.325,3.663 v 1.056 H -2.98 V 37.31 c 5.091,0 3.973,-2.421 3.166,-3.29 L -16.265,16.513 h -1.8 v 15.024 c 0,4.159 0.124,5.773 5.525,5.773 v 1.056 H -28.184 V 37.31 c 5.959,0 6.083,-1.614 6.083,-5.773 V 1.738 c 0,-4.532 -0.682,-5.773 -6.083,-5.773 v -1.056 h 15.644 v 1.056 c -4.842,0 -5.525,1.241 -5.525,5.773 v 13.161 h 3.29 z" /></g><g
           transform="translate(130.3683,51.2782)"
           id="g32"><path
             id="path34"
             style="fill:#231f20;fill-opacity:1;fill-rule:nonzero;stroke:none"
             d="M 0,0 C 0,4.159 0.124,5.773 6.084,5.773 V 6.829 H -10.119 V 5.773 c 5.96,0 6.084,-1.614 6.084,-5.773 v -36.069 c 0,-8.442 -3.353,-12.478 -6.084,-14.464 l 0.559,-0.745 c 4.283,3.29 9.56,7.201 9.56,16.327 z" /></g><g
           transform="translate(163.1466,14.0301)"
           id="g36"><path
             id="path38"
             style="fill:#231f20;fill-opacity:1;fill-rule:nonzero;stroke:none"
             d="M 0,0 C 13.223,0 21.231,10.864 21.231,22.349 21.231,33.834 13.223,44.698 0,44.698 -13.223,44.698 -21.356,33.834 -21.356,22.349 -21.356,10.864 -13.223,0 0,0 m 0,2.049 c -9.126,0 -16.948,9.188 -16.948,20.3 0,11.112 7.822,20.3 16.948,20.3 9.126,0 16.824,-9.188 16.824,-20.3 C 16.824,11.237 9.126,2.049 0,2.049" /></g><g
           transform="translate(212.4387,14.0301)"
           id="g40"><path
             id="path42"
             style="fill:#231f20;fill-opacity:1;fill-rule:nonzero;stroke:none"
             d="M 0,0 C 13.223,0 21.231,10.864 21.231,22.349 21.231,33.834 13.223,44.698 0,44.698 -13.223,44.698 -21.356,33.834 -21.356,22.349 -21.356,10.864 -13.223,0 0,0 m 0,2.049 c -9.126,0 -16.948,9.188 -16.948,20.3 0,11.112 7.822,20.3 16.948,20.3 9.126,0 16.824,-9.188 16.824,-20.3 C 16.824,11.237 9.126,2.049 0,2.049" /></g><g
           transform="translate(280.541,22.6593)"
           id="g44"><path
             id="path46"
             style="fill:#231f20;fill-opacity:1;fill-rule:nonzero;stroke:none"
             d="m 0,0 -31.475,35.448 h -9.436 v -1.056 c 5.587,0 7.512,-1.241 7.512,-5.773 V -1.18 c 0,-5.028 -1.366,-5.773 -6.27,-5.773 v -1.055 h 16.079 v 1.055 c -6.333,0 -7.574,0.807 -7.574,5.773 V 28.122 L 1.738,-8.319 h 0.559 v 36.938 c 0,4.283 1.49,5.773 5.649,5.773 v 1.056 H -6.332 V 34.392 C -1.676,34.392 0,33.337 0,28.619 Z" /></g><g
           transform="translate(325.1775,58.107)"
           id="g48"><path
             id="path50"
             style="fill:#231f20;fill-opacity:1;fill-rule:nonzero;stroke:none"
             d="m 0,0 h -17.32 v -1.055 c 5.959,0 6.083,-1.677 6.083,-5.774 v -29.798 c 0,-4.532 -0.682,-5.774 -6.083,-5.774 v -1.055 h 32.219 l 0.559,9.622 h -1.055 c -1.056,-7.201 -3.787,-7.636 -7.885,-7.636 h -7.76 c -4.531,0 -5.959,1.304 -5.959,5.277 v 29.364 c 0,4.47 0.993,5.774 7.201,5.774 z" /></g><g
           transform="translate(344.6069,14.6509)"
           id="g52"><path
             id="path54"
             style="fill:#231f20;fill-opacity:1;fill-rule:nonzero;stroke:none"
             d="m 0,0 h 32.22 l 0.558,9.622 H 31.723 C 30.668,2.421 27.936,1.987 23.839,1.987 h -7.76 c -4.532,0 -5.96,1.303 -5.96,5.276 V 21.79 h 8.878 c 4.966,0 5.587,-0.124 5.587,-5.525 h 1.055 v 12.851 h -1.055 c 0,-5.277 -0.621,-5.401 -5.587,-5.401 h -8.878 v 17.817 h 10.554 c 6.891,0 7.946,-0.125 8.877,-6.705 h 1.056 l -0.249,8.629 H 0 v -1.055 c 5.96,0 6.084,-1.676 6.084,-5.774 V 6.829 C 6.084,2.297 5.401,1.055 0,1.055 Z" /></g><g
           transform="translate(382.5999,14.6509)"
           id="g56"><path
             id="path58"
             style="fill:#231f20;fill-opacity:1;fill-rule:nonzero;stroke:none"
             d="m 0,0 h 32.22 l 0.558,9.622 H 31.723 C 30.668,2.421 27.936,1.987 23.839,1.987 h -7.76 c -4.532,0 -5.96,1.303 -5.96,5.276 V 21.79 h 8.878 c 4.966,0 5.587,-0.124 5.587,-5.525 h 1.055 v 12.851 h -1.055 c 0,-5.277 -0.621,-5.401 -5.587,-5.401 h -8.878 v 17.817 h 10.554 c 6.891,0 7.946,-0.125 8.877,-6.705 h 1.056 l -0.249,8.629 H 0 v -1.055 c 5.96,0 6.084,-1.676 6.084,-5.774 V 6.829 C 6.084,2.297 5.401,1.055 0,1.055 Z" /></g></g></g></g></svg>