<?xml version="1.0" encoding="utf-8"?>
<!-- Generator: Adobe Illustrator 25.3.1, SVG Export Plug-In . SVG Version: 6.00 Build 0)  -->
<svg version="1.1" id="Layer_1" xmlns="http://www.w3.org/2000/svg" xmlns:xlink="http://www.w3.org/1999/xlink" x="0px" y="0px"
	 viewBox="0 0 404.62 51.05" style="enable-background:new 0 0 404.62 51.05;" xml:space="preserve">
<style type="text/css">
	.st0{clip-path:url(#SVGID_2_);fill:#FFFFFF;}
</style>
<g>
	<g>
		<defs>
			<rect id="SVGID_1_" width="404.62" height="51.05"/>
		</defs>
		<clipPath id="SVGID_2_">
			<use xlink:href="#SVGID_1_"  style="overflow:visible;"/>
		</clipPath>
		<rect class="st0" width="404.62" height="51.05"/>
		<rect class="st0" width="404.62" height="51.05"/>
	</g>
	<path d="M5.41,10.57c0,1.12,0.2,2.05,0.59,2.8c0.41,0.74,1.02,1.39,1.84,1.95c0.82,0.56,1.86,1.06,3.12,1.53
		c1.26,0.46,2.75,0.95,4.47,1.47c1.49,0.48,2.95,1.02,4.39,1.63c1.44,0.61,2.74,1.37,3.87,2.31c1.15,0.94,2.05,2.08,2.74,3.42
		c0.69,1.34,1.03,2.98,1.03,4.91c0,2.04-0.4,3.78-1.2,5.2c-0.8,1.42-1.87,2.57-3.19,3.45c-1.32,0.87-2.86,1.51-4.61,1.91
		c-1.74,0.41-3.57,0.61-5.48,0.61c-2.49,0-4.76-0.28-6.8-0.83c-2.04-0.56-3.89-1.27-5.53-2.11l-0.23-0.78l1.02-6.44h1.5l0.3,0.36
		c0.21,2.45,1.19,4.25,2.95,5.39c1.76,1.14,4.16,1.7,7.22,1.7c3.12,0,5.48-0.71,7.06-2.13c1.58-1.43,2.38-3.28,2.38-5.56
		c0-1.41-0.31-2.58-0.91-3.52c-0.61-0.95-1.4-1.75-2.38-2.41c-0.98-0.66-2.1-1.22-3.37-1.66c-1.26-0.44-2.53-0.88-3.81-1.33
		c-1.61-0.52-3.1-1.09-4.48-1.7c-1.38-0.62-2.58-1.35-3.59-2.19c-1.02-0.84-1.82-1.85-2.41-3.02C1.3,14.39,1.02,13,1.02,11.41
		c0-1.88,0.33-3.48,0.98-4.78c0.66-1.3,1.58-2.36,2.73-3.19C5.9,2.62,7.25,2.03,8.8,1.68c1.54-0.36,3.21-0.55,5.02-0.55
		c2.16,0,4.21,0.2,6.14,0.61c1.93,0.4,3.49,0.87,4.69,1.44l0.23,0.66l-0.84,5.34h-1.67l-0.3-0.3C21.98,7.84,21.63,7,21.03,6.36
		c-0.61-0.64-1.32-1.14-2.14-1.5c-0.81-0.36-1.7-0.6-2.64-0.72c-0.94-0.12-1.77-0.19-2.48-0.19c-2.61,0-4.65,0.57-6.14,1.72
		C6.14,6.81,5.41,8.44,5.41,10.57L5.41,10.57z"/>
	<path d="M74.52,1.66l-0.17,1.09L74.1,2.99c-0.64,0-1.25,0.03-1.83,0.09c-0.59,0.06-1.05,0.23-1.41,0.5
		c-0.32,0.28-0.62,0.65-0.91,1.09c-0.28,0.44-0.46,1.22-0.55,2.34c-0.03,0.48-0.06,0.96-0.08,1.44c-0.02,0.48-0.04,1.06-0.06,1.75
		c-0.02,0.68-0.03,1.5-0.03,2.47c0,0.96,0,2.14,0,3.53v11.55c0,1.96-0.29,3.79-0.88,5.5c-0.59,1.7-1.48,3.18-2.69,4.45
		c-1.2,1.26-2.71,2.25-4.53,2.97c-1.82,0.72-3.95,1.08-6.39,1.08c-2.81,0-5.2-0.36-7.14-1.08c-1.94-0.72-3.51-1.71-4.72-2.97
		c-1.2-1.27-2.07-2.75-2.61-4.45c-0.53-1.71-0.8-3.54-0.8-5.5V16.21c0-1.4,0-2.57,0-3.53c0-0.97,0-1.79,0-2.47
		c0-0.69-0.01-1.27-0.03-1.75c-0.02-0.48-0.05-0.96-0.09-1.44c-0.09-1.08-0.28-1.85-0.58-2.31c-0.31-0.47-0.61-0.84-0.92-1.12
		c-0.37-0.27-0.83-0.44-1.39-0.5c-0.56-0.06-1.17-0.09-1.8-0.09l-0.3-0.23l-0.19-1.09l0.12-0.23c0.28,0,0.74,0.02,1.38,0.06
		c0.64,0.04,1.3,0.09,1.99,0.12c0.69,0.03,1.35,0.07,1.98,0.11c0.64,0.04,1.11,0.06,1.39,0.06h1.14c0.28,0,0.74-0.02,1.38-0.06
		c0.64-0.04,1.3-0.08,1.99-0.11c0.69-0.04,1.35-0.08,1.98-0.12c0.64-0.04,1.11-0.06,1.39-0.06l0.11,0.23l-0.17,1.09l-0.25,0.23
		c-0.64,0-1.25,0.03-1.83,0.09c-0.59,0.06-1.05,0.23-1.41,0.5c-0.32,0.28-0.62,0.65-0.91,1.09c-0.28,0.44-0.46,1.22-0.55,2.34
		c-0.04,0.56-0.08,1.09-0.09,1.56c-0.01,0.48-0.03,1.04-0.05,1.69c-0.02,0.64-0.03,1.42-0.03,2.34c0,0.92,0,2.09,0,3.53v9.92
		c0,4.34,0.97,7.45,2.91,9.33c1.94,1.88,4.64,2.81,8.09,2.81c3.44,0,6.15-0.94,8.11-2.81c1.97-1.88,2.95-4.99,2.95-9.33v-9.92
		c0-1.44,0-2.61,0-3.53c0-0.93-0.01-1.71-0.03-2.34c-0.02-0.65-0.04-1.21-0.06-1.69c-0.02-0.48-0.06-1-0.09-1.56
		c-0.09-1.12-0.28-1.91-0.58-2.34c-0.29-0.45-0.6-0.81-0.92-1.09c-0.32-0.27-0.78-0.44-1.36-0.5c-0.58-0.06-1.2-0.09-1.83-0.09
		l-0.3-0.23l-0.19-1.09l0.12-0.23c0.28,0,0.7,0.02,1.27,0.06c0.56,0.04,1.15,0.09,1.76,0.12c0.62,0.03,1.21,0.07,1.77,0.11
		c0.56,0.04,0.98,0.06,1.26,0.06h1.33c0.28,0,0.72-0.02,1.31-0.06c0.6-0.04,1.23-0.08,1.89-0.11c0.66-0.04,1.3-0.08,1.91-0.12
		c0.6-0.04,1.05-0.06,1.33-0.06L74.52,1.66z"/>
	<path d="M95.94,1.66l-0.19,1.09l-0.23,0.23c-0.65,0-1.26,0.03-1.84,0.09c-0.57,0.06-1.04,0.23-1.41,0.5
		c-0.32,0.28-0.62,0.65-0.91,1.09c-0.28,0.44-0.46,1.22-0.53,2.34c-0.04,0.56-0.07,1.09-0.09,1.56c-0.02,0.48-0.04,1.04-0.06,1.69
		c-0.02,0.64-0.03,1.42-0.03,2.34c0,0.92,0,2.09,0,3.53v4.09c1.08-0.68,2.39-1.66,3.94-2.94c1.54-1.29,3.04-2.66,4.48-4.09
		c1.72-1.72,3.16-3.33,4.31-4.83c1.16-1.51,1.75-2.55,1.75-3.11c0-0.44-0.1-0.79-0.3-1.05c-0.2-0.26-0.45-0.47-0.75-0.62
		c-0.31-0.16-0.65-0.29-1.03-0.36c-0.38-0.08-0.77-0.16-1.17-0.25l-0.3-0.23V1.66l0.3-0.23c1.6,0.24,3.37,0.36,5.3,0.36h2.95
		c0.48,0,0.88,0,1.22,0c0.34,0,0.68-0.02,1.01-0.06c0.34-0.04,0.71-0.08,1.11-0.11c0.41-0.04,0.89-0.1,1.45-0.19l0.25,0.23v1.09
		l-0.25,0.23c-0.52,0.12-1.23,0.28-2.11,0.45c-0.87,0.18-1.62,0.47-2.22,0.87c-0.4,0.24-0.84,0.62-1.34,1.14
		c-0.5,0.52-1.1,1.18-1.81,1.98c-0.7,0.8-1.53,1.75-2.5,2.83c-0.96,1.07-2.12,2.29-3.47,3.66l-4.81,4.94
		c3.32,5.04,7.01,9.95,11.06,14.72c0.8,0.93,1.54,1.75,2.22,2.47c0.67,0.72,1.41,1.34,2.19,1.86c0.78,0.52,1.65,0.95,2.61,1.27
		c0.97,0.32,2.13,0.56,3.5,0.72l0.36,0.23l0.12,1.09l-0.12,0.23c-0.89,0-1.89,0.03-3.02,0.11c-1.12,0.08-2,0.13-2.64,0.13
		c-1.04,0-1.95-0.11-2.7-0.33c-0.76-0.22-1.5-0.59-2.2-1.11c-0.7-0.52-1.43-1.2-2.19-2.03c-0.76-0.84-1.62-1.87-2.58-3.08
		c-0.12-0.16-0.59-0.79-1.39-1.89c-0.79-1.1-1.7-2.38-2.73-3.84c-1.02-1.47-2.06-2.95-3.12-4.45c-1.06-1.5-1.91-2.73-2.55-3.7h-0.24
		c-0.45,0.32-0.87,0.62-1.28,0.88c-0.4,0.26-0.84,0.59-1.31,1v4.08c0,1.45,0,2.62,0,3.53c0,0.9,0.01,1.65,0.03,2.25
		c0.02,0.59,0.04,1.11,0.06,1.53c0.02,0.42,0.05,0.87,0.09,1.34c0.07,1.12,0.25,1.91,0.53,2.36c0.28,0.44,0.58,0.8,0.91,1.08
		c0.36,0.28,0.83,0.45,1.41,0.52c0.58,0.05,1.2,0.08,1.84,0.08l0.23,0.23l0.19,1.09l-0.13,0.23c-0.28,0-0.75-0.02-1.39-0.06
		c-0.64-0.04-1.3-0.09-1.98-0.12c-0.68-0.03-1.34-0.07-1.99-0.11c-0.64-0.04-1.09-0.06-1.38-0.06h-1.14c-0.28,0-0.75,0.02-1.39,0.06
		c-0.64,0.04-1.3,0.08-1.98,0.11c-0.68,0.04-1.34,0.08-1.98,0.12c-0.64,0.04-1.09,0.06-1.38,0.06l-0.12-0.23l0.19-1.09l0.3-0.23
		c0.64,0,1.24-0.02,1.8-0.08c0.56-0.06,1.02-0.23,1.39-0.52c0.32-0.28,0.63-0.64,0.94-1.08c0.3-0.45,0.49-1.23,0.56-2.36
		c0-0.28,0.01-0.61,0.03-0.98c0.02-0.38,0.04-0.85,0.06-1.41c0.02-0.56,0.03-1.24,0.03-2.05c0-0.8,0-1.81,0-3.02v-12.2
		c0-1.4,0-2.57,0-3.53c0-0.97,0-1.79,0-2.47c0-0.69-0.01-1.27-0.03-1.75c-0.02-0.48-0.06-0.96-0.09-1.44
		c-0.07-1.08-0.26-1.85-0.56-2.31c-0.3-0.47-0.62-0.84-0.94-1.12c-0.37-0.27-0.83-0.44-1.39-0.5c-0.55-0.06-1.15-0.09-1.8-0.09
		l-0.3-0.23l-0.19-1.09l0.12-0.23c0.28,0,0.74,0.02,1.38,0.06c0.64,0.04,1.31,0.09,1.98,0.12c0.69,0.03,1.35,0.07,1.98,0.11
		c0.64,0.04,1.11,0.06,1.39,0.06h1.14c0.28,0,0.74-0.02,1.38-0.06c0.64-0.04,1.31-0.08,1.99-0.11c0.69-0.04,1.35-0.08,1.98-0.12
		c0.64-0.04,1.11-0.06,1.39-0.06L95.94,1.66z"/>
	<path d="M137.35,1.66l-0.19,1.09l-0.23,0.23c-0.65,0-1.26,0.03-1.84,0.09c-0.57,0.06-1.04,0.23-1.41,0.5
		c-0.32,0.28-0.62,0.65-0.91,1.09c-0.28,0.44-0.46,1.22-0.53,2.34c-0.04,0.56-0.07,1.09-0.09,1.56c-0.02,0.48-0.04,1.04-0.06,1.69
		c-0.02,0.64-0.03,1.42-0.03,2.34c0,0.92,0,2.09,0,3.53v11.06c0,1.45,0,2.66,0,3.64c0,0.98-0.01,1.81-0.03,2.5
		c-0.02,0.68-0.03,1.26-0.03,1.77c0,0.5,0,0.98,0,1.42c0,1.61-0.18,3.19-0.55,4.75c-0.36,1.56-0.87,2.97-1.53,4.23
		c-0.66,1.26-1.48,2.31-2.45,3.16c-0.98,0.84-2.09,1.38-3.34,1.62c-0.31,0.07-0.67,0.12-1.08,0.14c-0.4,0.02-0.76,0.03-1.08,0.03
		l-0.48-0.17l-0.12-1.33l0.25-0.3c0.52,0,0.98-0.01,1.38-0.03c0.41-0.02,0.8-0.12,1.2-0.28c0.48-0.27,0.94-0.63,1.39-1.08
		c1.11-1.12,1.76-3.2,1.94-6.23c0.19-3.05,0.28-7.27,0.28-12.64v-12.2c0-1.4,0-2.57,0-3.53c0-0.97-0.01-1.79-0.03-2.47
		c-0.02-0.69-0.04-1.27-0.06-1.75c-0.02-0.48-0.05-0.96-0.09-1.44c-0.07-1.08-0.25-1.85-0.53-2.31c-0.28-0.47-0.59-0.84-0.91-1.12
		c-0.36-0.27-0.81-0.44-1.38-0.5c-0.56-0.06-1.17-0.09-1.81-0.09l-0.3-0.23l-0.19-1.09l0.12-0.23c0.28,0,0.74,0.02,1.38,0.06
		c0.64,0.04,1.3,0.09,1.98,0.12c0.69,0.03,1.35,0.07,1.98,0.11c0.64,0.04,1.11,0.06,1.39,0.06h1.14c0.28,0,0.74-0.02,1.38-0.06
		c0.64-0.04,1.3-0.08,1.99-0.11c0.69-0.04,1.35-0.08,1.98-0.12c0.64-0.04,1.11-0.06,1.39-0.06L137.35,1.66z"/>
	<path d="M164.46,1.13c3.12,0,5.91,0.54,8.34,1.63c2.44,1.07,4.5,2.54,6.16,4.41c1.66,1.87,2.94,4.02,3.83,6.47
		c0.88,2.45,1.33,5.01,1.33,7.69c0,2.65-0.43,5.2-1.3,7.67c-0.87,2.46-2.14,4.63-3.83,6.52c-1.68,1.89-3.77,3.4-6.28,4.55
		c-2.5,1.13-5.39,1.7-8.67,1.7c-3.21,0-6.01-0.54-8.39-1.61c-2.39-1.08-4.39-2.54-6.01-4.36c-1.62-1.82-2.84-3.94-3.64-6.38
		c-0.79-2.43-1.19-4.98-1.19-7.67c0-2.84,0.44-5.51,1.31-8.01c0.88-2.51,2.16-4.7,3.84-6.56c1.69-1.86,3.75-3.33,6.19-4.41
		C158.6,1.67,161.37,1.13,164.46,1.13L164.46,1.13z M164.4,38.57c2.41,0,4.54-0.44,6.39-1.34c1.86-0.91,3.44-2.14,4.72-3.7
		c1.29-1.56,2.27-3.38,2.95-5.47c0.68-2.08,1.01-4.3,1.01-6.67c0-2.41-0.35-4.65-1.05-6.73c-0.7-2.08-1.71-3.9-3.03-5.44
		c-1.32-1.54-2.94-2.74-4.84-3.59c-1.91-0.86-4.06-1.3-6.47-1.3c-2.37,0-4.46,0.43-6.28,1.3c-1.83,0.86-3.36,2.04-4.59,3.56
		c-1.24,1.52-2.17,3.32-2.8,5.39c-0.62,2.06-0.92,4.31-0.92,6.75c0,2.69,0.36,5.09,1.08,7.22c0.72,2.12,1.74,3.93,3.06,5.42
		c1.32,1.48,2.89,2.62,4.72,3.42C160.18,38.17,162.19,38.57,164.4,38.57L164.4,38.57z"/>
	<path d="M212.73,1.13c3.12,0,5.91,0.54,8.34,1.63c2.44,1.07,4.5,2.54,6.16,4.41c1.66,1.87,2.94,4.02,3.83,6.47
		c0.88,2.45,1.33,5.01,1.33,7.69c0,2.65-0.43,5.2-1.3,7.67c-0.87,2.46-2.14,4.63-3.83,6.52c-1.68,1.89-3.77,3.4-6.28,4.55
		c-2.5,1.13-5.39,1.7-8.67,1.7c-3.21,0-6.01-0.54-8.39-1.61c-2.39-1.08-4.39-2.54-6.02-4.36c-1.63-1.82-2.84-3.94-3.64-6.38
		c-0.79-2.43-1.19-4.98-1.19-7.67c0-2.84,0.44-5.51,1.31-8.01c0.88-2.51,2.16-4.7,3.84-6.56c1.69-1.86,3.75-3.33,6.19-4.41
		C206.87,1.67,209.64,1.13,212.73,1.13L212.73,1.13z M212.67,38.57c2.41,0,4.53-0.44,6.39-1.34c1.86-0.91,3.44-2.14,4.72-3.7
		c1.29-1.56,2.27-3.38,2.95-5.47c0.68-2.08,1.02-4.3,1.02-6.67c0-2.41-0.35-4.65-1.05-6.73c-0.7-2.08-1.71-3.9-3.03-5.44
		c-1.32-1.54-2.94-2.74-4.84-3.59c-1.91-0.86-4.06-1.3-6.47-1.3c-2.37,0-4.46,0.43-6.28,1.3c-1.82,0.86-3.36,2.04-4.59,3.56
		c-1.24,1.52-2.17,3.32-2.8,5.39c-0.62,2.06-0.92,4.31-0.92,6.75c0,2.69,0.36,5.09,1.08,7.22c0.72,2.12,1.74,3.93,3.06,5.42
		c1.32,1.48,2.9,2.62,4.72,3.42C208.44,38.17,210.46,38.57,212.67,38.57L212.67,38.57z"/>
	<path d="M280.18,1.66l-0.12,1.09l-0.3,0.23c-0.65,0-1.26,0.03-1.84,0.09c-0.57,0.06-1.02,0.23-1.34,0.5
		c-0.32,0.28-0.62,0.65-0.87,1.09c-0.26,0.44-0.43,1.22-0.52,2.34c-0.03,0.56-0.06,1.09-0.08,1.56c-0.02,0.48-0.04,1.04-0.06,1.69
		c-0.02,0.64-0.03,1.42-0.03,2.34c0,0.92,0,2.09,0,3.53v10.59c0,2.24,0.01,4.09,0.03,5.53c0.02,1.44,0.04,2.67,0.06,3.69
		c0.02,1.02,0.05,1.93,0.11,2.73c0.06,0.8,0.13,1.68,0.22,2.64l-0.48,0.31l-3.73-0.25l-0.59-0.72L249.21,8.64
		c0,0.4-0.01,0.8-0.03,1.2c-0.01,0.4-0.02,0.89-0.02,1.47c0,0.59,0,1.26,0,2.02c0,0.76,0,1.7,0,2.81v11.06c0,0.49,0,1.12,0,1.91
		c0,0.78,0,1.59,0.02,2.44c0.02,0.84,0.04,1.64,0.06,2.42c0.02,0.78,0.05,1.41,0.09,1.89c0.08,1,0.25,1.76,0.52,2.27
		c0.26,0.5,0.59,0.89,0.98,1.17c0.32,0.24,0.74,0.4,1.27,0.48c0.52,0.07,1.18,0.11,1.98,0.11l0.3,0.23l0.19,1.09l-0.13,0.23
		c-0.28,0-0.71-0.02-1.3-0.06c-0.57-0.04-1.18-0.09-1.83-0.12c-0.64-0.03-1.25-0.07-1.83-0.11c-0.59-0.04-1.01-0.06-1.3-0.06h-1.14
		c-0.28,0-0.75,0.02-1.39,0.06c-0.64,0.04-1.3,0.08-1.98,0.11c-0.68,0.04-1.34,0.08-1.99,0.12c-0.64,0.04-1.09,0.06-1.38,0.06
		l-0.12-0.23l0.19-1.09l0.3-0.23c0.72,0,1.33-0.02,1.83-0.08c0.51-0.06,0.96-0.23,1.36-0.52c0.28-0.21,0.57-0.54,0.88-1
		c0.3-0.46,0.51-1.27,0.62-2.44c0.04-0.28,0.07-0.61,0.09-0.98c0.02-0.38,0.03-0.85,0.03-1.41c0-0.56,0-1.24,0-2.05
		c0-0.8,0-1.81,0-3.02v-12.2c0-1.4,0-2.57,0-3.53c0-0.97,0-1.79,0-2.47c0-0.69-0.01-1.27-0.03-1.75c-0.02-0.48-0.06-0.96-0.09-1.44
		c-0.07-0.84-0.25-1.55-0.53-2.14c-0.28-0.58-0.6-1.02-0.97-1.3c-0.37-0.27-0.82-0.44-1.36-0.5c-0.53-0.06-1.14-0.09-1.83-0.09
		l-0.3-0.23l-0.19-1.09l0.12-0.23c0.28,0,0.69,0.02,1.24,0.06c0.54,0.04,1.09,0.09,1.66,0.12c0.56,0.03,1.11,0.07,1.64,0.11
		c0.54,0.04,0.95,0.06,1.23,0.06h2.11c0.32,0,0.77-0.02,1.34-0.06c0.58-0.04,1.06-0.1,1.42-0.17l0.3,0.17c0.16,0.56,0.5,1.34,1,2.33
		c0.5,0.98,1.1,2.07,1.8,3.26c0.7,1.2,1.46,2.48,2.28,3.84c0.82,1.37,1.66,2.71,2.5,4.03c3.04,4.89,5.69,8.88,7.95,11.97
		c2.27,3.09,3.73,5.09,4.38,6c0-0.28,0-0.54,0.02-0.78c0.02-0.24,0.03-0.52,0.03-0.83c0-0.32,0-0.72,0-1.2c0-0.49,0-1.13,0-1.94
		v-12.2c0-1.4,0-2.57,0-3.53c0-0.97-0.01-1.79-0.03-2.47c-0.01-0.69-0.03-1.27-0.05-1.75c-0.02-0.48-0.05-0.96-0.09-1.44
		c-0.09-1.12-0.27-1.91-0.55-2.34c-0.28-0.45-0.58-0.81-0.89-1.09c-0.37-0.27-0.84-0.44-1.42-0.5c-0.59-0.06-1.2-0.09-1.83-0.09
		l-0.25-0.23l-0.17-1.09l0.13-0.23c0.28,0,0.68,0.02,1.2,0.06c0.52,0.04,1.05,0.09,1.58,0.12c0.54,0.03,1.07,0.07,1.59,0.11
		c0.52,0.04,0.92,0.06,1.2,0.06h2.83c0.28,0,0.68-0.01,1.2-0.03c0.52-0.02,1.06-0.05,1.62-0.08c0.56-0.04,1.1-0.08,1.63-0.12
		c0.52-0.04,0.92-0.08,1.2-0.12L280.18,1.66z"/>
	<path d="M309.38,7.02c-0.07-1.12-0.25-1.91-0.53-2.34c-0.28-0.45-0.59-0.81-0.91-1.09c-0.37-0.27-0.83-0.44-1.39-0.5
		c-0.55-0.06-1.15-0.09-1.8-0.09l-0.3-0.23l-0.19-1.09l0.12-0.23c0.28,0,0.74,0.02,1.38,0.06c0.64,0.04,1.3,0.09,1.98,0.12
		c0.69,0.03,1.35,0.07,1.98,0.11c0.64,0.04,1.11,0.06,1.39,0.06h1.14c0.28,0,0.74-0.02,1.38-0.06c0.64-0.04,1.3-0.08,1.98-0.11
		c0.69-0.04,1.35-0.08,1.98-0.12c0.64-0.04,1.11-0.06,1.39-0.06l0.12,0.23l-0.19,1.09l-0.23,0.23c-0.65,0-1.26,0.03-1.84,0.09
		c-0.57,0.06-1.04,0.23-1.41,0.5c-0.32,0.28-0.64,0.66-0.94,1.12c-0.3,0.46-0.49,1.23-0.56,2.31c-0.04,0.56-0.07,1.09-0.09,1.56
		c-0.02,0.48-0.03,1.04-0.03,1.69c0,0.64,0,1.42,0,2.34c0,0.92,0,2.09,0,3.53v11.06c0,1.41,0,2.57,0,3.5c0,0.92,0.01,1.72,0.03,2.41
		c0.02,0.68,0.05,1.32,0.09,1.92c0.04,0.59,0.08,1.27,0.11,2.03c0.04,0.76,0.46,1.14,1.27,1.14h5.11c2.41,0,4.22-0.05,5.44-0.14
		c1.23-0.1,2.11-0.31,2.66-0.62c0.54-0.32,0.87-0.81,0.98-1.47c0.13-0.66,0.33-1.54,0.61-2.62l0.17-0.25h1.56l-1.08,7.64l-0.48,0.59
		c-0.2,0-0.57-0.01-1.11-0.03c-0.54-0.01-1.17-0.04-1.88-0.08c-0.7-0.04-1.42-0.08-2.16-0.09c-0.74-0.02-1.37-0.03-1.89-0.03h-12.14
		c-0.28,0-0.75,0.02-1.39,0.06c-0.64,0.04-1.3,0.08-1.98,0.11c-0.68,0.04-1.34,0.08-1.98,0.12c-0.64,0.04-1.09,0.06-1.38,0.06
		l-0.12-0.23l0.19-1.09l0.3-0.23c0.64,0,1.24-0.02,1.8-0.08c0.56-0.06,1.02-0.23,1.39-0.52c0.32-0.28,0.63-0.68,0.91-1.2
		c0.28-0.52,0.48-1.27,0.59-2.23c0.04-0.28,0.07-0.61,0.09-0.98c0.02-0.38,0.03-0.85,0.03-1.41c0-0.56,0-1.24,0-2.05
		c0-0.8,0-1.81,0-3.02v-12.2c0-1.4,0-2.57,0-3.53c0-0.97-0.01-1.79-0.03-2.47c-0.02-0.69-0.04-1.27-0.06-1.75
		C309.45,7.98,309.42,7.5,309.38,7.02L309.38,7.02z"/>
	<path d="M355.01,1.79c0.52,0,1.31-0.01,2.37-0.03c1.06-0.02,2.13-0.05,3.22-0.08c1.08-0.04,2.05-0.07,2.91-0.09
		c0.86-0.02,1.4-0.03,1.61-0.03l0.3,0.59l-0.23,6.55h-1.52l-0.23-0.23c-0.09-0.91-0.2-1.63-0.34-2.16c-0.14-0.52-0.54-0.9-1.2-1.14
		c-0.66-0.25-1.65-0.39-2.97-0.42c-1.32-0.04-3.18-0.06-5.58-0.06h-5.78l-0.11,2.34c-0.04,0.64-0.07,1.18-0.09,1.62
		c-0.02,0.44-0.04,0.98-0.06,1.62c-0.02,0.64-0.03,1.41-0.03,2.31c0,0.9,0,3.07,0,6.52c1.21-0.04,2.41-0.06,3.61-0.06
		c1.2,0,2.29-0.02,3.27-0.06c0.99-0.04,1.82-0.13,2.5-0.27c0.69-0.13,1.15-0.34,1.39-0.62c0.31-0.32,0.59-0.64,0.83-0.97
		c0.25-0.32,0.38-0.78,0.38-1.38l0.3-0.31l1.02-0.11l0.25,0.11c-0.09,0.93-0.16,1.73-0.22,2.42c-0.06,0.68-0.09,1.45-0.09,2.33
		c0,0.97,0.03,1.87,0.09,2.69c0.06,0.81,0.13,1.7,0.22,2.67l-0.25,0.11l-1.08-0.11l-0.23-0.19c0-0.63-0.13-1.22-0.38-1.77
		c-0.24-0.54-0.52-0.99-0.83-1.36c-0.24-0.24-0.7-0.41-1.39-0.53c-0.68-0.12-1.5-0.21-2.47-0.25c-0.96-0.04-2.04-0.06-3.25-0.06
		c-1.2,0-2.42,0-3.66,0v5.83c0,1.45,0,2.62,0,3.53c0,0.9,0.01,1.7,0.03,2.41c0.02,0.7,0.05,1.34,0.09,1.92
		c0.04,0.58,0.1,1.24,0.17,2c0,0.76,0.4,1.14,1.2,1.14h5.11c2.41,0,4.3-0.05,5.69-0.14c1.38-0.1,2.44-0.31,3.16-0.62
		c0.72-0.32,1.23-0.81,1.53-1.47c0.3-0.66,0.59-1.54,0.88-2.62l0.23-0.25h1.56l-1.08,7.64l-0.48,0.59c-0.2,0-0.66-0.01-1.39-0.03
		c-0.72-0.01-1.53-0.04-2.44-0.08c-0.9-0.04-1.8-0.08-2.7-0.09c-0.9-0.02-1.61-0.03-2.12-0.03h-12.14c-0.28,0-0.75,0.02-1.39,0.06
		c-0.64,0.04-1.3,0.08-1.98,0.11c-0.68,0.04-1.34,0.08-1.98,0.12c-0.64,0.04-1.09,0.06-1.38,0.06l-0.12-0.23l0.19-1.09l0.3-0.23
		c0.64,0,1.24-0.02,1.8-0.08c0.56-0.06,1.02-0.23,1.39-0.52c0.32-0.28,0.63-0.64,0.94-1.08c0.3-0.45,0.49-1.23,0.56-2.36
		c0-0.28,0.01-0.61,0.03-0.98c0.02-0.38,0.04-0.85,0.06-1.41c0.02-0.56,0.03-1.24,0.03-2.05c0-0.8,0-1.81,0-3.02v-12.2
		c0-1.4,0-2.57,0-3.53c0-0.97,0-1.79,0-2.47c0-0.69-0.01-1.27-0.03-1.75c-0.02-0.48-0.05-0.96-0.09-1.44
		c-0.07-1.08-0.26-1.85-0.56-2.31c-0.3-0.47-0.62-0.84-0.94-1.12c-0.37-0.27-0.83-0.44-1.39-0.5c-0.55-0.06-1.15-0.09-1.8-0.09
		l-0.3-0.23l-0.19-1.09l0.12-0.23c0.28,0,0.74,0.02,1.38,0.06c0.64,0.04,1.34,0.09,2.08,0.12c0.74,0.03,1.46,0.07,2.16,0.11
		c0.71,0.04,1.28,0.06,1.72,0.06H355.01z"/>
	<path d="M391.73,1.79c0.52,0,1.31-0.01,2.38-0.03c1.06-0.02,2.13-0.05,3.22-0.08c1.08-0.04,2.05-0.07,2.91-0.09
		c0.86-0.02,1.4-0.03,1.61-0.03l0.3,0.59l-0.23,6.55h-1.52l-0.23-0.23c-0.09-0.91-0.2-1.63-0.34-2.16c-0.14-0.52-0.54-0.9-1.2-1.14
		c-0.66-0.25-1.65-0.39-2.97-0.42c-1.32-0.04-3.18-0.06-5.58-0.06h-5.78l-0.11,2.34c-0.04,0.64-0.07,1.18-0.09,1.62
		c-0.02,0.44-0.04,0.98-0.06,1.62c-0.02,0.64-0.03,1.41-0.03,2.31c0,0.9,0,3.07,0,6.52c1.21-0.04,2.41-0.06,3.61-0.06
		c1.2,0,2.29-0.02,3.27-0.06c0.99-0.04,1.82-0.13,2.5-0.27c0.69-0.13,1.15-0.34,1.39-0.62c0.31-0.32,0.59-0.64,0.83-0.97
		c0.25-0.32,0.38-0.78,0.38-1.38l0.3-0.31l1.02-0.11l0.25,0.11c-0.09,0.93-0.16,1.73-0.22,2.42c-0.06,0.68-0.09,1.45-0.09,2.33
		c0,0.97,0.03,1.87,0.09,2.69c0.06,0.81,0.13,1.7,0.22,2.67l-0.25,0.11l-1.08-0.11l-0.24-0.19c0-0.63-0.12-1.22-0.38-1.77
		c-0.24-0.54-0.52-0.99-0.83-1.36c-0.24-0.24-0.7-0.41-1.39-0.53c-0.68-0.12-1.5-0.21-2.47-0.25c-0.96-0.04-2.04-0.06-3.25-0.06
		c-1.2,0-2.42,0-3.66,0v5.83c0,1.45,0,2.62,0,3.53c0,0.9,0.01,1.7,0.03,2.41c0.02,0.7,0.05,1.34,0.09,1.92
		c0.04,0.58,0.1,1.24,0.17,2c0,0.76,0.4,1.14,1.2,1.14h5.11c2.41,0,4.3-0.05,5.69-0.14c1.38-0.1,2.44-0.31,3.16-0.62
		c0.72-0.32,1.23-0.81,1.53-1.47c0.3-0.66,0.59-1.54,0.87-2.62l0.23-0.25h1.56l-1.08,7.64l-0.48,0.59c-0.2,0-0.66-0.01-1.39-0.03
		c-0.72-0.01-1.53-0.04-2.44-0.08c-0.9-0.04-1.8-0.08-2.7-0.09c-0.9-0.02-1.61-0.03-2.12-0.03h-12.14c-0.28,0-0.75,0.02-1.39,0.06
		c-0.64,0.04-1.3,0.08-1.98,0.11c-0.68,0.04-1.34,0.08-1.98,0.12c-0.64,0.04-1.09,0.06-1.37,0.06l-0.13-0.23l0.19-1.09l0.3-0.23
		c0.64,0,1.24-0.02,1.8-0.08c0.56-0.06,1.02-0.23,1.39-0.52c0.32-0.28,0.63-0.64,0.94-1.08c0.3-0.45,0.49-1.23,0.56-2.36
		c0-0.28,0.01-0.61,0.03-0.98c0.02-0.38,0.04-0.85,0.06-1.41c0.02-0.56,0.03-1.24,0.03-2.05c0-0.8,0-1.81,0-3.02v-12.2
		c0-1.4,0-2.57,0-3.53c0-0.97,0-1.79,0-2.47c0-0.69-0.01-1.27-0.03-1.75c-0.02-0.48-0.05-0.96-0.09-1.44
		c-0.07-1.08-0.26-1.85-0.56-2.31c-0.3-0.47-0.62-0.84-0.94-1.12c-0.37-0.27-0.83-0.44-1.39-0.5c-0.55-0.06-1.15-0.09-1.8-0.09
		l-0.3-0.23l-0.19-1.09l0.13-0.23c0.28,0,0.74,0.02,1.37,0.06c0.64,0.04,1.34,0.09,2.08,0.12c0.74,0.03,1.46,0.07,2.16,0.11
		c0.71,0.04,1.28,0.06,1.72,0.06H391.73z"/>
</g>
</svg>
