<?xml version="1.0" encoding="utf-8"?>
<!-- Generator: Adobe Illustrator 25.3.1, SVG Export Plug-In . SVG Version: 6.00 Build 0)  -->
<svg version="1.1" id="Layer_1" xmlns="http://www.w3.org/2000/svg" xmlns:xlink="http://www.w3.org/1999/xlink" x="0px" y="0px"
	 viewBox="0 0 156.1 43.3" style="enable-background:new 0 0 156.1 43.3;" xml:space="preserve">
<g>
	<path d="M30.9,10.4c-4.4,0.4-6.5,0.8-6.5,1.2v0.1c0.3,0.7,1.3,1.1,3.1,1c3.9-0.3,6.2-0.1,7,0.6c0.6,0,1-0.3,1.1-0.6v-0.2
		c0-0.5-0.6-0.9-1.7-1.2c-1.3-0.6-2.3-0.9-2.7-1C31.2,10.2,31.1,10.3,30.9,10.4L30.9,10.4z M15.6,15.3c1.7-1.5,3.3-3.3,4.8-5.1h0.1
		c-0.2,3-0.2,4.6-0.2,4.8c0.3,0.5,0.4,0.7,0.6,0.7h0.3c1.1-0.1,1.8-2.3,2.1-6.6c0-1.2,0.1-1.7,0.6-1.7l1-0.1c0.5,0,1.4,0.1,3,0.5
		h0.1c0.4,0,0.7-0.3,0.7-0.9c-0.1-0.3-0.3-0.5-0.7-0.8c-1.2-0.1-2-0.5-2.4-1C24.6,5.7,24,6,23.8,6h-0.3c0-0.9,0-1.7,0-2.4
		c1-0.1,1.4-0.4,1.4-1c0-0.6-0.9-1.1-2.5-1.5C21.1,0.4,20,0,19.3,0c-0.6,0.1-1.1,0.3-1.2,0.4l0.1,0.5v0c-0.3,0.3-0.5,0.4-0.5,0.5
		l0,0.1c0.2,0.8,0.6,1.1,1,1.1c0-0.1,0.1-0.2,0.5-0.2c0.1,0,0.5,0.1,1.1,0.4c0,1.5,0.1,2.6,0.1,3.3l0,0.8c-2,0.8-4.5,1.5-7.5,2.1
		h-0.8l-0.1,0c0,0.8,0.7,1.3,2.1,1.7c1.7-1,3.5-1.8,5.3-2.3v0.2c0,0.6-1,2.1-3,4.5c-3,3-5.8,5.1-8.5,6.6c-3,2.1-5.7,3.2-7.9,3.3v0.2
		c0.3,0.4,0.8,0.7,1.5,0.8c1.2,0,2.7-0.7,4.5-1.8c3.1-1.8,5.9-3.7,8.2-5.8h0.3l0.1,0.6v0.4c-0.6,2.3-1.2,3.5-1.8,3.5
		c0.5,1.4,1,2,1.6,2c0.6-0.3,1-0.7,1.2-1.1c3.1-2,5.6-3.2,7.4-3.5c0,0,0,0.1,0.2,0.1v0.2c-0.7,1.2-1.1,2-1.1,2.3H22l-0.9-0.2l0,0.1
		c0,0.2,0.1,0.3,0.2,0.5c1.1,1,1.6,2,1.7,3c0,0.1-0.9,0.4-2.9,0.9C17.5,26,13.7,27,8.7,28c-0.4,0-1.1,0-2,0c0,0.1,0,0.2-0.1,0.2
		c0.6,1.2,1.6,1.8,2.9,1.7c0.4-0.1,0.7-0.1,0.7-0.1c3.5-2.3,7.9-3.5,12.9-3.8c0.1,0,0.2,0,0.3-0.1c0.2,0,0.5,0.9,0.6,2.6
		c0,1.2,0,2,0,2.4c-0.7,5.2-1.5,7.9-2.5,8l-1.8,0.1c-1.2,0-2.5,0-4.1-0.1c-0.1,0-0.3,0.1-0.5,0.2l-1.6-0.6l-0.2,0.1
		c0,0.7,1.6,1.5,4.8,2.5c2,1.6,3.1,2.3,3.5,2.3c0.5-0.2,0.8-0.3,0.9-0.5c1.5-1.3,2.6-5.2,3.4-11.7c-0.1-1.4-0.4-3.3-0.9-5.5l1.8-0.1
		c1.4,0,3.3,0,5.7,0c0.7,0,2.3,0.2,4.9,0.8c0.5,0,0.9-0.2,1.1-0.7c0-0.6-0.8-1.1-2.3-1.4c-1.7-0.9-3-1.3-3.6-1.3v0.6
		c-0.7,0-1.2,0-1.5,0l-2.2,0.1c-1.3,0-2.7,0.2-4.2,0.5c-0.2-1.2-0.8-2.2-1.7-3c1.1-1.4,2.1-2.3,3.1-2.8c1.4-0.3,2.1-0.7,2.1-1.2
		c0-0.2-0.2-0.5-0.6-0.9c-1.2-0.3-2.1-0.7-2.7-1.1c-0.1,0-0.4,0-0.8,0.1c0,0.3,0.2,0.6,0.5,1.1v0.2c0,0.2-1,0.6-2.9,1.2
		c-3.7,1.6-5.8,2.4-6.6,2.4c0.5-1.5,0.8-2.3,0.8-2.5c0-0.7-0.4-1.2-1.1-1.5v-0.1C15,15.8,15.3,15.6,15.6,15.3L15.6,15.3z M82.5,2.3
		L80,3.6v0.1c0.2,0.3,0.4,0.4,0.7,0.4l2.5-0.4c0.2,0.1,0.2,0.2,0.2,0.2v4.7h-0.7c-0.4,0-1.7,0.3-3.7,0.9V7.3c0-1.1,0.2-1.9,0.5-2.4
		c-0.7-0.9-1.8-1.6-3.4-2c-0.6,0.1-0.9,0.2-0.9,0.4c1.2,1.4,1.8,2.2,1.8,2.3c0,2-0.1,5.1-0.4,9.3c0.2,1.4,0.6,2.1,1.2,2.1h0.3
		c0.6,0,1-2,1-6v-0.6c0.9,0.1,1.4,0.1,1.4,0.2c0.1,0,1.1-0.1,2.9-0.2v0c0,1.4-0.1,2.8-0.2,4.4c-1.5,0.1-2.7,0.4-3.4,0.9
		c0.5,0.6,1.2,0.9,2,0.9c0,0,0.4-0.1,1.2-0.2c0,0.8,0.6,1.4,1.8,2l0.5-0.3c0.2-0.4,0.7-4.4,1.6-11.9c0-0.5,0.7-1.4,2.1-2.5
		c-2.2-2-3.8-3-4.9-3C83.5,1,82.9,1.6,82.5,2.3L82.5,2.3z M77.7,18.3c0.1,0.5,0.2,1,0.2,1.5v0.3c0,0.4-0.6,1-1.9,1.6l-5.8,2.9
		l0.1,0.2c1.1,0,2.6-0.5,4.8-1.5c3.1-1.3,4.7-2.1,4.7-2.3c-0.1-0.5-0.1-0.7-0.2-0.7c0-1.4-0.4-2.2-1.2-2.2H78L77.7,18.3z M81.9,21.7
		l-0.5-0.1c-1.2,1.7-3.8,4.2-7.8,7.5h0c1,0,2.2-0.5,3.6-1.6c2.7-2.6,4.5-4,5.3-4v-1l0.5,0l3.4-0.2v0.1c0,1-1.8,3.5-5.2,7.5
		c-2.8,2.5-4.9,4-6.6,4.5c-1.3,0.3-2,0.5-2.2,0.6l0.1,0.2c1.5,0,2.4,0.1,2.6,0.1c1.5,0,3.7-1.4,6.7-4.3c2.6-3.2,4.8-5.5,6.4-7.1
		c0-0.2-0.3-0.7-1-1.4v-0.2h2.7c1.4,0,2.1,0.3,2.1,0.9c0,2.3-1.2,5.2-3.5,8.7c-2.1,3.4-3.8,5.8-5.2,7l-0.5-0.1
		c-2.2-1.9-3.5-2.8-4.1-2.8h-0.1c-0.1,0-0.2,0-0.2,0.2v0.1l0.3,0.2c0.6,0,1.2,1.3,1.9,4c0,1.5,0.5,2.3,1.6,2.3h0.4
		c0.8,0,2.9-2.1,6.4-6.1c1.2-0.8,3.3-4.8,6.3-11.8c0,0,0,0-0.1,0c0-1.5-0.9-3-2.7-4.5C90.1,20.8,86.7,21.3,81.9,21.7L81.9,21.7z
		 M65.4,3.9L65.4,3.9c0,0.6,0.3,1.1,1,1.7c-1.6,4.4-4.9,10.1-10,17.3c-2.6,3.7-3.9,5.7-3.9,6.1c0.1,0,0.2,0.1,0.2,0.2
		c1.6-0.7,3.2-2.3,4.7-4.7c4.6-7.1,8.3-12.8,11-17c0.9-0.6,1.3-1,1.3-1.2c0-0.5-0.6-1.1-1.9-1.6c-1.3-0.7-2.1-1-2.2-1
		C65.7,3.8,65.5,3.9,65.4,3.9L65.4,3.9z M67.3,10.7c0,0.6,0.6,1.1,1.8,1.3c1-0.1,1.5-0.2,1.5-0.3c2.5-0.4,3.8-0.9,3.8-1.4l-0.3-0.6
		c-0.8-0.2-1.6-0.6-2.3-1C71.3,9.2,69.9,9.9,67.3,10.7L67.3,10.7z M64.7,15.1c0,0.2,0.1,0.6,0.5,1.2c-0.3,0.2-1.2,0.5-2.7,1.1
		c0,0.5,0.3,1,1,1.4c0.6,0,1.2-0.1,2.1-0.2h0.1c0,0.7,0,1.6-0.1,2.7c0,0.7-1.3,1.2-4,1.3h-0.7l-0.2,0.1c0,0.6,0.5,1.1,1.6,1.4l3-0.7
		h0.2c0,0.2,0,1.4,0.1,3.5c0,0.2-1.1,0.4-3.4,0.6h-0.1c-0.8-0.5-1.7-0.9-2.6-1.3v0.4c1.2,1.9,2.2,2.9,2.8,2.9h0.2c1.6-1.3,2.6-2,3-2
		h0.2c0.2,1.6,0.3,2.6,0.3,3.1V31c-4.2,1.6-6.8,2.4-7.8,2.4c-0.2,0-0.9-0.3-2.2-1h-0.1v0.1c0,0.1,0,0.2,0.1,0.4
		c0.8,1.3,2,2.3,3.3,2.7c1.3,0,5.1-1.7,11.3-5.2l-0.1-0.2l-4.2,0.7c0.5-2.7,0.8-4.1,0.8-4.4l0.8-4c1.9-0.2,2.9-0.5,2.9-0.8v-0.2
		c-0.1-0.2-0.8-0.5-2-1.1c0,0-0.1,0.1-0.4,0.3h-0.1c0-0.3,0.3-1.3,0.9-3.1h0.4l0.2,0.1c0.6-0.2,0.9-0.4,0.9-0.8
		c-0.1,0-0.1-0.1-0.1-0.3l-2.6-1.3c-0.1,0-0.5,0.2-1.2,0.5c-0.2,0-0.7-0.2-1.7-0.8C64.8,15.1,64.8,15.1,64.7,15.1L64.7,15.1z
		 M69.2,26.5c0,0.3-0.4,0.9-1.1,1.8c1-0.2,1.5-0.4,1.5-0.5c1.7-0.1,2.6-0.4,2.6-0.9c0-0.6-1.3-1.3-3.8-2.1h-0.1
		C68.3,25.3,68.5,25.8,69.2,26.5L69.2,26.5z"/>
	<path d="M121.2,7.3c0,0.2,0.3,0.9,0.8,2c-0.8,2-3.6,5-8.4,9c-3.4,2.3-5.1,3.6-5.2,3.8v0.1c0,0.1,0.1,0.2,0.5,0.4
		c0.9,0,3.3-1.2,7.1-3.7c2.3-1.7,3.5-2.6,3.8-2.6c-0.1,1.3-0.1,2.3-0.1,2.6c-1,11.6-1.5,17.6-1.5,18.1c0.6,2,1.3,3,2,3
		c0.7,0,1.1-0.5,1.3-1.5c0-1.4-0.1-2.5-0.1-3.4v-2.3c0-3.9,0.4-9.3,1.3-16.1c0-0.5-0.5-1.1-1.4-1.8v-0.1c3.1-2.9,4.7-4.5,4.7-4.9
		c-0.2-0.4-0.5-0.8-0.9-1c-1-0.4-2.3-1-3.7-1.7C121.4,7.3,121.4,7.3,121.2,7.3L121.2,7.3z M140.9,15c0.2,0.7,0.4,1.2,0.6,1.3
		c0,0.7,1.5,1.4,4.4,2.1c0.6,0,1.1-0.2,1.2-0.7v-0.1c0-0.7-0.6-1.2-1.7-1.4c-1.4-0.9-2.5-1.3-3.2-1.3h-1.1L140.9,15z M135.6,19.2
		v0.2c0,0.2-0.1,0.5-0.4,1.1c-1.9,2.5-3.4,4.6-4.5,6.2v0.1c1.1-0.6,1.7-1,2-1c0.4,0,1.6,1.2,3.5,3.5c-0.1,0-0.1,0-0.1,0.1
		c-2.3,2.3-4.7,4-7.2,5c-2.2,0.3-3.3,0.6-3.3,0.8c0,0.6,0.6,1.1,1.9,1.5c2.3-0.5,5.7-2.5,10.1-6.2c0,0,0.2,0,0.5,0.1
		c5.5,5.8,9.5,8.7,12,8.7c1.1-0.1,1.7-0.2,1.8-0.2c0.8,0,1.7,0.1,2.6,0.2l1.7-0.4v-0.4c-0.6-0.6-2-1.3-4.3-2.2c-4.1-1.2-6.4-2-7-2.5
		c-2.7-1.9-4.7-3.5-6-4.8c1.2-1.3,2.2-2.5,2.7-3.5c2.1-2.1,3.1-3.2,3.1-3.5s-0.8-0.8-2.3-1.4c-0.1,0-1.7,0.4-5,1h-0.1
		c0-0.1,0.3-0.8,0.8-1.8c0-0.6-1-1.2-2.9-1.9h-0.1C135.5,18.6,135.6,19,135.6,19.2L135.6,19.2z M141.2,22.9L141.2,22.9
		c-0.7,1.9-2,3.7-3.8,5.2l-3.7-2.8v-0.1c0.7-0.8,1.3-1.2,1.8-1.5c0.2,0,0.3,0,0.5,0.1L141.2,22.9z M134.4,14.8l-0.3-0.4v-0.2
		c5.8-1.2,9-1.8,9.7-1.8h1.3c0.6,0.4,1.1,0.7,1.7,0.9c0.8,0,1.3-0.6,1.6-1.8c0-1.1-0.6-2.1-1.8-3c-1.3-0.4-2.3-0.9-2.9-1.4h-0.1
		c0,0.2,0.2,0.9,0.7,2.2v0.4c-6.3,1.3-9.6,2.1-9.8,2.1h-0.1v-0.1l0.9-1.1c2.3-1.8,3.5-3,3.5-3.5c0-0.6-0.3-1.2-0.8-1.8
		c-1.4-0.5-2.6-1.1-3.7-1.7h-0.3l-0.2,0.1c0,0.6,0.4,1.4,1.2,2.6c0,0.5-0.3,1.4-1,2.6c-1.6,2.6-3.7,4.4-6.2,5.3v0.1
		c0.3,1.2,0.8,1.7,1.3,1.7c2.3-0.9,3.5-1.3,3.7-1.3h0.1c0.2,0,0.3,0.2,0.3,0.4c0,0.1,0,0.2,0,0.3v0.5c0,0.3-0.1,0.6-0.5,1
		c-2.3,2.3-3.7,3.9-4.2,4.8v0.3c0.2,0,0.6-0.1,1.2-0.3c3.7-3.1,5.5-4.9,5.5-5.5C135,15.7,134.8,15.2,134.4,14.8L134.4,14.8z"/>
</g>
</svg>
