<?xml version="1.0" encoding="UTF-8" standalone="no"?>
<svg
   xmlns:dc="http://purl.org/dc/elements/1.1/"
   xmlns:cc="http://creativecommons.org/ns#"
   xmlns:rdf="http://www.w3.org/1999/02/22-rdf-syntax-ns#"
   xmlns:svg="http://www.w3.org/2000/svg"
   xmlns="http://www.w3.org/2000/svg"
   viewBox="0 0 549.88934 72.609329"
   height="72.609329"
   width="549.88934"
   xml:space="preserve"
   id="svg2"
   version="1.1"><metadata
     id="metadata8"><rdf:RDF><cc:Work
         rdf:about=""><dc:format>image/svg+xml</dc:format><dc:type
           rdf:resource="http://purl.org/dc/dcmitype/StillImage" /></cc:Work></rdf:RDF></metadata><defs
     id="defs6"><clipPath
       id="clipPath18"
       clipPathUnits="userSpaceOnUse"><path
         id="path16"
         d="M 0,54.457 H 412.417 V 0 H 0 Z" /></clipPath></defs><g
     transform="matrix(1.3333333,0,0,-1.3333333,0,72.609333)"
     id="g10"><g
       id="g12"><g
         clip-path="url(#clipPath18)"
         id="g14"><g
           transform="translate(8.5781,51.4336)"
           id="g20"><path
             id="path22"
             style="fill:#231f20;fill-opacity:1;fill-rule:nonzero;stroke:none"
             d="m 0,0 c -1.383,-0.703 -2.449,-1.652 -3.199,-2.848 -0.751,-1.195 -1.125,-2.578 -1.125,-4.148 0,-1.219 0.222,-2.285 0.668,-3.199 0.445,-0.938 1.113,-1.77 2.004,-2.496 0.866,-0.704 1.898,-1.372 3.093,-2.004 0.726,-0.399 1.629,-0.856 2.707,-1.371 l 0.422,-0.211 0.457,-0.211 c 2.227,-1.032 3.868,-1.805 4.922,-2.321 1.055,-0.562 2.133,-1.289 3.235,-2.179 1.101,-0.891 1.98,-1.946 2.636,-3.164 0.633,-1.243 0.95,-2.637 0.95,-4.184 0,-1.828 -0.575,-3.574 -1.723,-5.238 -1.149,-1.641 -2.777,-2.966 -4.887,-3.973 -2.086,-1.008 -4.465,-1.512 -7.137,-1.512 -1.078,0 -2.144,0.071 -3.199,0.211 -0.375,0.047 -0.738,0.118 -1.09,0.211 -0.14,0.023 -0.281,0.047 -0.421,0.071 l -0.176,0.035 -0.141,0.035 c -0.961,0.187 -1.887,0.281 -2.777,0.281 -0.844,0.023 -1.384,-0.129 -1.617,-0.457 -0.094,-0.118 -0.153,-0.269 -0.176,-0.457 v -0.527 h -0.598 v 11.285 h 0.598 c 0.211,-1.149 0.62,-2.391 1.23,-3.727 1.242,-2.625 2.906,-4.359 4.992,-5.203 1.43,-0.422 2.707,-0.633 3.832,-0.633 1.781,0 3.363,0.352 4.747,1.055 1.358,0.703 2.413,1.64 3.164,2.813 0.75,1.218 1.125,2.613 1.125,4.183 0,1.218 -0.224,2.285 -0.668,3.199 -0.446,0.937 -1.102,1.758 -1.969,2.461 -0.891,0.726 -1.922,1.407 -3.094,2.039 -0.75,0.399 -1.664,0.856 -2.742,1.372 l -0.422,0.21 -0.457,0.176 c -2.203,1.031 -3.844,1.816 -4.922,2.356 -1.055,0.562 -2.133,1.288 -3.234,2.179 -1.102,0.891 -1.969,1.946 -2.602,3.164 -0.656,1.243 -0.984,2.637 -0.984,4.184 0,1.828 0.574,3.574 1.723,5.238 1.147,1.64 2.777,2.965 4.886,3.973 2.11,1.007 4.5,1.512 7.172,1.512 1.055,0 2.109,-0.071 3.164,-0.211 C 8.742,1.898 9.117,1.828 9.492,1.758 9.609,1.734 9.738,1.71 9.879,1.687 l 0.176,-0.035 0.14,-0.035 c 0.961,-0.188 1.887,-0.293 2.778,-0.316 0.843,0 1.382,0.163 1.617,0.492 0.093,0.117 0.152,0.269 0.176,0.457 v 0.527 h 0.597 V -8.508 h -0.597 c -0.211,1.148 -0.621,2.391 -1.231,3.727 -0.539,1.172 -1.172,2.167 -1.898,2.988 C 10.723,-0.786 9.691,-0.047 8.543,0.422 7.348,0.844 6.07,1.055 4.711,1.055 2.93,1.055 1.359,0.703 0,0" /></g><g
           transform="translate(65.9883,51.2227)"
           id="g24"><path
             id="path26"
             style="fill:#231f20;fill-opacity:1;fill-rule:nonzero;stroke:none"
             d="m 0,0 c -0.516,-0.961 -0.773,-1.934 -0.773,-2.918 l -0.036,-21.199 v -1.231 c -0.023,-0.703 -0.082,-1.394 -0.175,-2.074 -0.235,-1.969 -0.703,-3.726 -1.407,-5.273 -2.179,-4.711 -6.234,-7.067 -12.164,-7.067 -3.164,0 -5.894,0.692 -8.191,2.074 -2.32,1.383 -4.02,3.082 -5.098,5.098 -0.773,1.453 -1.265,2.953 -1.476,4.5 -0.211,1.57 -0.317,3.187 -0.317,4.852 v 20.285 c 0,1.195 -0.246,2.215 -0.738,3.058 -0.469,0.821 -1.629,1.313 -3.48,1.477 v 0.457 h 12.796 V 1.582 c -1.875,-0.234 -3.07,-0.786 -3.586,-1.652 -0.515,-0.867 -0.773,-1.828 -0.773,-2.883 v -19.969 c 0,-4.055 0.41,-7.043 1.231,-8.965 0.89,-2.062 2.214,-3.679 3.972,-4.851 1.781,-1.173 3.668,-1.758 5.66,-1.758 l 0.457,0.035 h 0.633 c 0.539,0.047 1.078,0.117 1.617,0.211 1.477,0.258 2.801,0.738 3.973,1.441 3.422,2.133 5.133,6.024 5.133,11.672 V -2.953 C -2.742,-1.852 -3,-0.867 -3.516,0 -4.031,0.867 -5.25,1.394 -7.172,1.582 V 2.039 H 3.621 V 1.582 C 1.746,1.488 0.539,0.961 0,0" /></g><g
           transform="translate(106.1719,16.4531)"
           id="g28"><path
             id="path30"
             style="fill:#231f20;fill-opacity:1;fill-rule:nonzero;stroke:none"
             d="m 0,0 c 2.297,-2.32 4.57,-3.48 6.82,-3.48 v -0.458 h -8.613 l -18.492,19.829 -0.703,-0.703 V 0.984 c 0,-2.882 1.453,-4.371 4.359,-4.464 v -0.458 h -12.902 v 0.458 c 0.82,0.022 1.534,0.175 2.144,0.457 0.633,0.257 1.16,0.714 1.582,1.371 0.399,0.655 0.598,1.534 0.598,2.636 v 30.903 c 0,1.734 -0.422,2.894 -1.266,3.48 -0.867,0.61 -1.886,0.926 -3.058,0.949 v 0.493 h 12.902 v -0.493 c -2.906,-0.093 -4.359,-1.57 -4.359,-4.429 V 16.84 l 15.609,15.644 0.07,0.071 c 0.047,0.047 0.094,0.105 0.141,0.175 0.164,0.188 0.328,0.387 0.492,0.598 0.469,0.633 0.703,1.09 0.703,1.371 v 0.246 l -0.035,0.282 c -0.047,0.211 -0.153,0.386 -0.316,0.527 -0.446,0.374 -1.336,0.562 -2.672,0.562 v 0.493 H 4.254 V 36.316 H 3.867 c -1.336,0 -2.93,-0.609 -4.781,-1.828 C -1.5,34.113 -2.086,33.68 -2.672,33.188 -2.86,33.023 -3.047,32.871 -3.234,32.73 -3.282,32.66 -3.34,32.602 -3.41,32.555 L -3.445,32.52 -3.48,32.484 -17.367,18.773 Z" /></g><g
           transform="translate(121.5352,53.332)"
           id="g32"><path
             id="path34"
             style="fill:#231f20;fill-opacity:1;fill-rule:nonzero;stroke:none"
             d="m 0,0 h 12.938 v -0.492 c -1.219,0 -2.263,-0.34 -3.129,-1.02 -0.844,-0.68 -1.266,-1.805 -1.266,-3.375 v -38.004 c 0,-2.694 -1.067,-5.085 -3.199,-7.172 -1.946,-1.875 -4.078,-2.964 -6.399,-3.269 l -0.105,0.703 c 1.453,0.399 2.695,1.395 3.726,2.988 1.196,1.852 1.793,4.102 1.793,6.75 v 38.004 c 0,1.688 -0.434,2.848 -1.3,3.481 C 2.215,-0.797 1.195,-0.492 0,-0.492 Z" /></g><g
           transform="translate(164.8125,12.9727)"
           id="g36"><path
             id="path38"
             style="fill:#231f20;fill-opacity:1;fill-rule:nonzero;stroke:none"
             d="m 0,0 c 4.641,0 8.601,1.957 11.883,5.871 3.305,3.89 4.957,8.601 4.957,14.133 0,5.507 -1.652,10.207 -4.957,14.098 C 8.601,38.016 4.641,39.973 0,39.973 c -4.641,0 -8.602,-1.957 -11.883,-5.871 -3.305,-3.891 -4.957,-8.591 -4.957,-14.098 0,-5.532 1.652,-10.243 4.957,-14.133 C -8.602,1.957 -4.641,0 0,0 m 0,41.484 c 5.953,0 11.039,-2.097 15.258,-6.293 4.195,-4.195 6.293,-9.258 6.293,-15.187 C 21.551,14.05 19.453,8.977 15.258,4.781 11.039,0.585 5.953,-1.512 0,-1.512 c -5.954,0 -11.027,2.097 -15.223,6.293 -4.218,4.196 -6.328,9.269 -6.328,15.223 0,5.929 2.11,10.992 6.328,15.187 4.196,4.196 9.269,6.293 15.223,6.293" /></g><g
           transform="translate(216.1758,12.9727)"
           id="g40"><path
             id="path42"
             style="fill:#231f20;fill-opacity:1;fill-rule:nonzero;stroke:none"
             d="m 0,0 c 4.641,0 8.601,1.957 11.883,5.871 3.305,3.89 4.957,8.601 4.957,14.133 0,5.507 -1.652,10.207 -4.957,14.098 C 8.601,38.016 4.641,39.973 0,39.973 c -4.641,0 -8.602,-1.957 -11.883,-5.871 -3.305,-3.891 -4.957,-8.591 -4.957,-14.098 0,-5.532 1.652,-10.243 4.957,-14.133 C -8.602,1.957 -4.641,0 0,0 m 0,41.484 c 5.953,0 11.039,-2.097 15.258,-6.293 4.195,-4.195 6.293,-9.258 6.293,-15.187 C 21.551,14.05 19.453,8.977 15.258,4.781 11.039,0.585 5.953,-1.512 0,-1.512 c -5.954,0 -11.027,2.097 -15.223,6.293 -4.218,4.196 -6.328,9.269 -6.328,15.223 0,5.929 2.11,10.992 6.328,15.187 4.196,4.196 9.269,6.293 15.223,6.293" /></g><g
           transform="translate(286.5581,52.8047)"
           id="g44"><path
             id="path46"
             style="fill:#231f20;fill-opacity:1;fill-rule:nonzero;stroke:none"
             d="M 0,0 H -1.16 C -1.723,-0.047 -2.203,-0.176 -2.602,-0.387 -3.773,-1.02 -4.359,-2.379 -4.359,-4.465 v -31.289 c 0.07,-1.922 0.679,-3.164 1.828,-3.726 0.398,-0.211 0.867,-0.329 1.406,-0.352 0.188,-0.023 0.398,-0.035 0.633,-0.035 h 0.246 L 0,-39.832 v -0.457 h -8.156 l -24.75,32.519 v -27.597 c 0,-2.11 0.586,-3.469 1.758,-4.078 0.422,-0.211 0.914,-0.34 1.477,-0.387 0.187,-0.023 0.398,-0.035 0.632,-0.035 h 0.282 l 0.211,0.035 v -0.457 h -12.903 v 0.457 h 0.246 l 0.282,-0.035 c 0.233,0 0.444,0.012 0.632,0.035 0.563,0.047 1.043,0.176 1.442,0.387 1.172,0.632 1.758,1.991 1.758,4.078 V -4.5 c 0,2.109 -0.586,3.468 -1.758,4.078 -0.422,0.211 -0.903,0.339 -1.442,0.387 h -1.16 v 0.457 h 7.453 l 27.809,-36.774 v 31.887 c 0,2.086 -0.586,3.445 -1.758,4.078 -0.399,0.211 -0.879,0.34 -1.441,0.387 -0.188,0.023 -0.41,0.023 -0.668,0 h -0.492 V 0.457 L 0,0.457 Z" /></g><g
           transform="translate(333.5269,13.7461)"
           id="g48"><path
             id="path50"
             style="fill:#231f20;fill-opacity:1;fill-rule:nonzero;stroke:none"
             d="M 0,0 C 2.367,0 4.02,0.691 4.957,2.074 5.285,2.543 5.543,3.105 5.73,3.762 5.777,3.973 5.836,4.23 5.906,4.535 L 5.977,4.887 6.012,5.133 H 6.469 L 5.66,-1.23 h -28.371 v 0.457 h 0.563 c 0.867,0 1.711,0.339 2.531,1.019 0.82,0.703 1.23,1.851 1.23,3.445 v 30.903 c 0,2.086 -0.586,3.445 -1.758,4.078 -0.398,0.211 -0.878,0.339 -1.441,0.387 -0.187,0.023 -0.41,0.023 -0.668,0 h -0.246 -0.246 v 0.457 h 12.902 v -0.457 h -0.246 -0.281 -0.633 c -0.562,-0.048 -1.043,-0.176 -1.441,-0.387 -1.149,-0.633 -1.723,-1.992 -1.723,-4.078 V 4.008 c 0,-0.516 0.035,-0.962 0.105,-1.336 0.094,-0.516 0.247,-0.949 0.458,-1.301 C -13.066,0.457 -12.082,0 -10.652,0 Z" /></g><g
           transform="translate(355.5698,33.5742)"
           id="g52"><path
             id="path54"
             style="fill:#231f20;fill-opacity:1;fill-rule:nonzero;stroke:none"
             d="m 0,0 h 11.18 c 2.367,0 3.984,0.41 4.851,1.23 0.61,0.563 0.914,1.489 0.914,2.778 h 0.422 v -9.211 h -0.422 c 0,0.515 -0.047,0.961 -0.14,1.336 -0.141,0.515 -0.387,0.949 -0.739,1.301 -0.89,0.89 -2.519,1.336 -4.886,1.336 L 0,-1.23 v -14.59 c 0,-0.516 0.035,-0.962 0.105,-1.336 0.071,-0.516 0.211,-0.949 0.422,-1.301 0.563,-0.914 1.559,-1.371 2.989,-1.371 h 10.652 c 2.367,0 4.019,0.691 4.957,2.074 0.328,0.469 0.586,1.031 0.773,1.688 0.047,0.211 0.106,0.468 0.176,0.773 l 0.035,0.352 0.071,0.246 h 0.457 l -0.809,-6.364 H -8.543 v 0.457 h 0.563 c 0.867,0 1.71,0.34 2.531,1.02 0.82,0.703 1.23,1.851 1.23,3.445 V 14.59 c 0,1.242 -0.281,2.32 -0.843,3.234 -0.563,0.937 -1.536,1.406 -2.918,1.406 h -0.563 v 0.457 h 28.547 v -6.398 h -0.422 c 0,3.422 -2.285,5.133 -6.855,5.133 L 0,18.422 Z" /></g><g
           transform="translate(391.7808,33.5742)"
           id="g56"><path
             id="path58"
             style="fill:#231f20;fill-opacity:1;fill-rule:nonzero;stroke:none"
             d="m 0,0 h 11.18 c 2.367,0 3.984,0.41 4.851,1.23 0.61,0.563 0.914,1.489 0.914,2.778 h 0.422 v -9.211 h -0.422 c 0,0.515 -0.047,0.961 -0.14,1.336 -0.141,0.515 -0.387,0.949 -0.739,1.301 -0.89,0.89 -2.519,1.336 -4.886,1.336 L 0,-1.23 v -14.59 c 0,-0.516 0.035,-0.962 0.105,-1.336 0.071,-0.516 0.211,-0.949 0.422,-1.301 0.563,-0.914 1.559,-1.371 2.989,-1.371 h 10.652 c 2.367,0 4.019,0.691 4.957,2.074 0.328,0.469 0.586,1.031 0.773,1.688 0.047,0.211 0.106,0.468 0.176,0.773 l 0.035,0.352 0.071,0.246 h 0.457 l -0.809,-6.364 H -8.543 v 0.457 h 0.563 c 0.867,0 1.71,0.34 2.531,1.02 0.82,0.703 1.23,1.851 1.23,3.445 V 14.59 c 0,1.242 -0.281,2.32 -0.843,3.234 -0.563,0.937 -1.536,1.406 -2.918,1.406 h -0.563 v 0.457 h 28.547 v -6.398 h -0.422 c 0,3.422 -2.285,5.133 -6.855,5.133 L 0,18.422 Z" /></g></g></g></g></svg>